<mxfile host="65bd71144e">
    <diagram id="jpFDJ0GWIhSP-LSmC-w6" name="Page-1">
        <mxGraphModel dx="742" dy="423" grid="1" gridSize="10" guides="1" tooltips="1" connect="1" arrows="1" fold="1" page="1" pageScale="1" pageWidth="850" pageHeight="1100" background="none" math="0" shadow="0">
            <root>
                <mxCell id="0"/>
                <mxCell id="1" parent="0"/>
                <mxCell id="243" value="" style="edgeStyle=none;html=1;exitX=0.5;exitY=0;exitDx=0;exitDy=0;" parent="1" source="310" edge="1">
                    <mxGeometry relative="1" as="geometry">
                        <Array as="points">
                            <mxPoint x="370" y="60"/>
                        </Array>
                        <mxPoint x="370" y="100" as="sourcePoint"/>
                        <mxPoint x="470" y="59.99999999999977" as="targetPoint"/>
                    </mxGeometry>
                </mxCell>
                <mxCell id="246" style="edgeStyle=none;html=1;" parent="1" target="244" edge="1">
                    <mxGeometry relative="1" as="geometry">
                        <Array as="points">
                            <mxPoint x="370" y="290"/>
                        </Array>
                        <mxPoint x="370" y="190" as="sourcePoint"/>
                    </mxGeometry>
                </mxCell>
                <mxCell id="312" style="edgeStyle=none;html=1;exitX=0.5;exitY=1;exitDx=0;exitDy=0;entryX=0.5;entryY=1;entryDx=0;entryDy=0;" edge="1" parent="1" target="310">
                    <mxGeometry relative="1" as="geometry">
                        <mxPoint x="370" y="190" as="sourcePoint"/>
                    </mxGeometry>
                </mxCell>
                <mxCell id="320" style="edgeStyle=none;html=1;" edge="1" parent="1" source="241" target="247">
                    <mxGeometry relative="1" as="geometry"/>
                </mxCell>
                <mxCell id="241" value="Head" style="whiteSpace=wrap;html=1;rounded=0;" parent="1" vertex="1">
                    <mxGeometry x="470" y="29.999999999999943" width="120" height="60" as="geometry"/>
                </mxCell>
                <mxCell id="250" value="" style="edgeStyle=none;html=1;" parent="1" source="244" target="249" edge="1">
                    <mxGeometry relative="1" as="geometry">
                        <Array as="points">
                            <mxPoint x="530" y="190"/>
                        </Array>
                    </mxGeometry>
                </mxCell>
                <mxCell id="253" value="" style="edgeStyle=none;html=1;" parent="1" source="244" target="252" edge="1">
                    <mxGeometry relative="1" as="geometry">
                        <Array as="points">
                            <mxPoint x="735" y="290"/>
                        </Array>
                    </mxGeometry>
                </mxCell>
                <mxCell id="255" value="" style="edgeStyle=none;html=1;" parent="1" source="244" target="254" edge="1">
                    <mxGeometry relative="1" as="geometry">
                        <Array as="points">
                            <mxPoint x="530" y="740"/>
                        </Array>
                    </mxGeometry>
                </mxCell>
                <mxCell id="244" value="Body" style="rhombus;whiteSpace=wrap;html=1;fontFamily=Helvetica;fontSize=12;fontColor=default;align=center;strokeColor=default;fillColor=default;" parent="1" vertex="1">
                    <mxGeometry x="490" y="250" width="80" height="80" as="geometry"/>
                </mxCell>
                <mxCell id="247" value="Title&lt;br&gt;SEO&lt;br&gt;Styles" style="whiteSpace=wrap;html=1;rounded=0;" parent="1" vertex="1">
                    <mxGeometry x="675" y="29.999999999999943" width="120" height="60" as="geometry"/>
                </mxCell>
                <mxCell id="257" value="" style="edgeStyle=none;html=1;" parent="1" source="249" target="256" edge="1">
                    <mxGeometry relative="1" as="geometry"/>
                </mxCell>
                <mxCell id="249" value="Header" style="whiteSpace=wrap;html=1;rounded=0;" parent="1" vertex="1">
                    <mxGeometry x="675" y="160" width="120" height="60" as="geometry"/>
                </mxCell>
                <mxCell id="292" value="" style="edgeStyle=none;html=1;" parent="1" source="252" target="291" edge="1">
                    <mxGeometry relative="1" as="geometry"/>
                </mxCell>
                <mxCell id="252" value="Main" style="whiteSpace=wrap;html=1;rounded=0;" parent="1" vertex="1">
                    <mxGeometry x="675" y="510" width="120" height="60" as="geometry"/>
                </mxCell>
                <mxCell id="294" value="" style="edgeStyle=none;html=1;" parent="1" source="254" target="293" edge="1">
                    <mxGeometry relative="1" as="geometry">
                        <Array as="points">
                            <mxPoint x="730" y="840"/>
                        </Array>
                    </mxGeometry>
                </mxCell>
                <mxCell id="296" value="" style="edgeStyle=none;html=1;" parent="1" source="254" target="295" edge="1">
                    <mxGeometry relative="1" as="geometry">
                        <Array as="points">
                            <mxPoint x="730" y="640"/>
                        </Array>
                    </mxGeometry>
                </mxCell>
                <mxCell id="299" value="" style="edgeStyle=none;html=1;" parent="1" source="254" target="298" edge="1">
                    <mxGeometry relative="1" as="geometry">
                        <Array as="points"/>
                    </mxGeometry>
                </mxCell>
                <mxCell id="254" value="Footer" style="rhombus;whiteSpace=wrap;html=1;fontFamily=Helvetica;fontSize=12;fontColor=default;align=center;strokeColor=default;fillColor=default;" parent="1" vertex="1">
                    <mxGeometry x="690" y="700" width="80" height="80" as="geometry"/>
                </mxCell>
                <mxCell id="259" value="" style="edgeStyle=none;html=1;" parent="1" source="256" target="258" edge="1">
                    <mxGeometry relative="1" as="geometry">
                        <Array as="points">
                            <mxPoint x="930" y="100"/>
                        </Array>
                    </mxGeometry>
                </mxCell>
                <mxCell id="261" value="" style="edgeStyle=none;html=1;" parent="1" source="256" target="260" edge="1">
                    <mxGeometry relative="1" as="geometry"/>
                </mxCell>
                <mxCell id="264" value="" style="edgeStyle=none;html=1;entryX=0;entryY=0.5;entryDx=0;entryDy=0;" parent="1" source="256" target="263" edge="1">
                    <mxGeometry relative="1" as="geometry">
                        <Array as="points">
                            <mxPoint x="930" y="400"/>
                        </Array>
                    </mxGeometry>
                </mxCell>
                <mxCell id="256" value="Navbar" style="rhombus;whiteSpace=wrap;html=1;fontFamily=Helvetica;fontSize=12;fontColor=default;align=center;strokeColor=default;fillColor=default;" parent="1" vertex="1">
                    <mxGeometry x="890" y="150" width="80" height="80" as="geometry"/>
                </mxCell>
                <mxCell id="258" value="Button&lt;br&gt;(Logo + Name)" style="whiteSpace=wrap;html=1;rounded=0;" parent="1" vertex="1">
                    <mxGeometry x="1075" y="70" width="120" height="60" as="geometry"/>
                </mxCell>
                <mxCell id="260" value="Search Bar" style="whiteSpace=wrap;html=1;rounded=0;" parent="1" vertex="1">
                    <mxGeometry x="1075" y="160" width="120" height="60" as="geometry"/>
                </mxCell>
                <mxCell id="266" value="" style="edgeStyle=none;html=1;entryX=0;entryY=0.5;entryDx=0;entryDy=0;exitX=1;exitY=0;exitDx=0;exitDy=0;" parent="1" source="317" target="265" edge="1">
                    <mxGeometry relative="1" as="geometry">
                        <Array as="points">
                            <mxPoint x="1320" y="200"/>
                        </Array>
                        <mxPoint x="1320" y="320" as="sourcePoint"/>
                    </mxGeometry>
                </mxCell>
                <mxCell id="270" style="edgeStyle=none;html=1;entryX=0;entryY=0.5;entryDx=0;entryDy=0;exitX=0.5;exitY=0;exitDx=0;exitDy=0;" parent="1" source="317" target="268" edge="1">
                    <mxGeometry relative="1" as="geometry">
                        <Array as="points">
                            <mxPoint x="1290" y="100"/>
                        </Array>
                        <mxPoint x="1290" y="370" as="sourcePoint"/>
                    </mxGeometry>
                </mxCell>
                <mxCell id="273" value="" style="edgeStyle=none;html=1;entryX=0;entryY=0.5;entryDx=0;entryDy=0;exitX=1;exitY=0;exitDx=0;exitDy=0;" parent="1" source="317" target="272" edge="1">
                    <mxGeometry relative="1" as="geometry">
                        <Array as="points">
                            <mxPoint x="1350" y="300"/>
                        </Array>
                        <mxPoint x="1350" y="370" as="sourcePoint"/>
                    </mxGeometry>
                </mxCell>
                <mxCell id="275" value="" style="edgeStyle=none;html=1;entryX=0;entryY=0.5;entryDx=0;entryDy=0;exitX=1;exitY=0.5;exitDx=0;exitDy=0;" parent="1" source="317" target="274" edge="1">
                    <mxGeometry relative="1" as="geometry">
                        <mxPoint x="1350" y="399.9999999999999" as="sourcePoint"/>
                    </mxGeometry>
                </mxCell>
                <mxCell id="277" style="edgeStyle=none;html=1;entryX=0;entryY=0.5;entryDx=0;entryDy=0;exitX=1;exitY=1;exitDx=0;exitDy=0;" parent="1" source="317" target="276" edge="1">
                    <mxGeometry relative="1" as="geometry">
                        <Array as="points">
                            <mxPoint x="1350" y="500"/>
                        </Array>
                        <mxPoint x="1350" y="429.9999999999999" as="sourcePoint"/>
                    </mxGeometry>
                </mxCell>
                <mxCell id="279" value="" style="edgeStyle=none;html=1;entryX=0;entryY=0.5;entryDx=0;entryDy=0;exitX=1;exitY=1;exitDx=0;exitDy=0;" parent="1" source="317" target="278" edge="1">
                    <mxGeometry relative="1" as="geometry">
                        <Array as="points">
                            <mxPoint x="1320" y="610"/>
                        </Array>
                        <mxPoint x="1320" y="429.9999999999999" as="sourcePoint"/>
                    </mxGeometry>
                </mxCell>
                <mxCell id="301" value="" style="edgeStyle=none;html=1;entryX=0;entryY=0.5;entryDx=0;entryDy=0;" parent="1" source="263" target="317" edge="1">
                    <mxGeometry relative="1" as="geometry">
                        <mxPoint x="1230" y="399.9999999999999" as="targetPoint"/>
                    </mxGeometry>
                </mxCell>
                <mxCell id="263" value="Menu Buttons" style="whiteSpace=wrap;html=1;rounded=0;" parent="1" vertex="1">
                    <mxGeometry x="1075" y="370" width="120" height="60" as="geometry"/>
                </mxCell>
                <mxCell id="288" value="" style="edgeStyle=none;html=1;" parent="1" source="265" target="287" edge="1">
                    <mxGeometry relative="1" as="geometry"/>
                </mxCell>
                <mxCell id="265" value="Video Games Page&lt;br&gt;(Index method)" style="whiteSpace=wrap;html=1;rounded=0;" parent="1" vertex="1">
                    <mxGeometry x="1470" y="170" width="120" height="60" as="geometry"/>
                </mxCell>
                <mxCell id="290" value="" style="edgeStyle=none;html=1;" parent="1" source="268" target="289" edge="1">
                    <mxGeometry relative="1" as="geometry"/>
                </mxCell>
                <mxCell id="268" value="Home" style="whiteSpace=wrap;html=1;rounded=0;" parent="1" vertex="1">
                    <mxGeometry x="1470" y="70" width="120" height="60" as="geometry"/>
                </mxCell>
                <mxCell id="308" style="edgeStyle=none;html=1;" parent="1" source="272" target="303" edge="1">
                    <mxGeometry relative="1" as="geometry"/>
                </mxCell>
                <mxCell id="272" value="Categories&amp;nbsp;Page&lt;br&gt;(Index method)" style="whiteSpace=wrap;html=1;rounded=0;" parent="1" vertex="1">
                    <mxGeometry x="1470" y="270" width="120" height="60" as="geometry"/>
                </mxCell>
                <mxCell id="307" style="edgeStyle=none;html=1;" parent="1" source="274" target="304" edge="1">
                    <mxGeometry relative="1" as="geometry"/>
                </mxCell>
                <mxCell id="274" value="Platforms&amp;nbsp;Page&lt;br&gt;(Index method)" style="whiteSpace=wrap;html=1;rounded=0;" parent="1" vertex="1">
                    <mxGeometry x="1470" y="370" width="120" height="60" as="geometry"/>
                </mxCell>
                <mxCell id="306" value="" style="edgeStyle=none;html=1;" parent="1" source="276" target="305" edge="1">
                    <mxGeometry relative="1" as="geometry"/>
                </mxCell>
                <mxCell id="276" value="About&amp;nbsp;Page&lt;br&gt;(Index method)" style="whiteSpace=wrap;html=1;rounded=0;" parent="1" vertex="1">
                    <mxGeometry x="1470" y="470" width="120" height="60" as="geometry"/>
                </mxCell>
                <mxCell id="281" value="" style="edgeStyle=none;html=1;" parent="1" source="278" target="280" edge="1">
                    <mxGeometry relative="1" as="geometry"/>
                </mxCell>
                <mxCell id="278" value="Contact&amp;nbsp;Page&lt;br&gt;(Index method)" style="whiteSpace=wrap;html=1;rounded=0;" parent="1" vertex="1">
                    <mxGeometry x="1470" y="580" width="120" height="60" as="geometry"/>
                </mxCell>
                <mxCell id="333" style="edgeStyle=none;html=1;" edge="1" parent="1" source="280" target="283">
                    <mxGeometry relative="1" as="geometry"/>
                </mxCell>
                <mxCell id="280" value="Contact Form" style="whiteSpace=wrap;html=1;rounded=0;" parent="1" vertex="1">
                    <mxGeometry x="1680" y="580" width="120" height="60" as="geometry"/>
                </mxCell>
                <mxCell id="283" value="Submit button" style="whiteSpace=wrap;html=1;rounded=0;" parent="1" vertex="1">
                    <mxGeometry x="1840" y="580" width="120" height="60" as="geometry"/>
                </mxCell>
                <mxCell id="287" value="Articles Related&lt;br&gt;to selected game&lt;br&gt;(Show method)" style="whiteSpace=wrap;html=1;rounded=0;" parent="1" vertex="1">
                    <mxGeometry x="1680" y="170" width="120" height="60" as="geometry"/>
                </mxCell>
                <mxCell id="289" value="All articles" style="whiteSpace=wrap;html=1;rounded=0;" parent="1" vertex="1">
                    <mxGeometry x="1680" y="70" width="120" height="60" as="geometry"/>
                </mxCell>
                <mxCell id="302" style="edgeStyle=none;html=1;entryX=0.5;entryY=1;entryDx=0;entryDy=0;" parent="1" source="291" target="317" edge="1">
                    <mxGeometry relative="1" as="geometry">
                        <Array as="points">
                            <mxPoint x="1290" y="540"/>
                        </Array>
                        <mxPoint x="1260" y="470" as="targetPoint"/>
                    </mxGeometry>
                </mxCell>
                <mxCell id="291" value="Layout" style="whiteSpace=wrap;html=1;rounded=0;" parent="1" vertex="1">
                    <mxGeometry x="860" y="510" width="120" height="60" as="geometry"/>
                </mxCell>
                <mxCell id="293" value="Scripts" style="whiteSpace=wrap;html=1;rounded=0;" parent="1" vertex="1">
                    <mxGeometry x="860" y="810" width="120" height="60" as="geometry"/>
                </mxCell>
                <mxCell id="295" value="Copyright" style="whiteSpace=wrap;html=1;rounded=0;" parent="1" vertex="1">
                    <mxGeometry x="860" y="610" width="120" height="60" as="geometry"/>
                </mxCell>
                <mxCell id="298" value="Privacy Policy" style="whiteSpace=wrap;html=1;rounded=0;" parent="1" vertex="1">
                    <mxGeometry x="860" y="710" width="120" height="60" as="geometry"/>
                </mxCell>
                <mxCell id="303" value="Articles Related&lt;br&gt;to selected game&lt;br&gt;(Show method)" style="whiteSpace=wrap;html=1;rounded=0;" parent="1" vertex="1">
                    <mxGeometry x="1680" y="270" width="120" height="60" as="geometry"/>
                </mxCell>
                <mxCell id="304" value="Articles Related&lt;br&gt;to selected game&lt;br&gt;(Show method)" style="whiteSpace=wrap;html=1;rounded=0;" parent="1" vertex="1">
                    <mxGeometry x="1680" y="370" width="120" height="60" as="geometry"/>
                </mxCell>
                <mxCell id="305" value="About Text" style="whiteSpace=wrap;html=1;rounded=0;" parent="1" vertex="1">
                    <mxGeometry x="1680" y="470" width="120" height="60" as="geometry"/>
                </mxCell>
                <mxCell id="310" value="&lt;span style=&quot;color: rgb(255, 255, 255);&quot;&gt;Front-End&lt;/span&gt;" style="rhombus;whiteSpace=wrap;html=1;fontFamily=Helvetica;fontSize=12;fontColor=#ffffff;align=center;strokeColor=#006EAF;fillColor=#1ba1e2;" vertex="1" parent="1">
                    <mxGeometry x="330" y="150" width="80" height="80" as="geometry"/>
                </mxCell>
                <mxCell id="315" style="edgeStyle=none;html=1;entryX=0;entryY=0.5;entryDx=0;entryDy=0;exitX=0.5;exitY=0;exitDx=0;exitDy=0;" edge="1" parent="1" source="313" target="310">
                    <mxGeometry relative="1" as="geometry">
                        <mxPoint x="240" y="700" as="sourcePoint"/>
                        <Array as="points">
                            <mxPoint x="240" y="190"/>
                        </Array>
                    </mxGeometry>
                </mxCell>
                <mxCell id="316" style="edgeStyle=none;html=1;entryX=0;entryY=0.5;entryDx=0;entryDy=0;exitX=0.5;exitY=1;exitDx=0;exitDy=0;" edge="1" parent="1" source="313" target="314">
                    <mxGeometry relative="1" as="geometry">
                        <mxPoint x="230" y="800" as="sourcePoint"/>
                        <Array as="points">
                            <mxPoint x="240" y="960"/>
                        </Array>
                    </mxGeometry>
                </mxCell>
                <mxCell id="313" value="Epic Game News" style="rhombus;whiteSpace=wrap;html=1;fontFamily=Helvetica;fontSize=12;fontColor=#ffffff;align=center;strokeColor=#3700CC;fillColor=#6a00ff;" vertex="1" parent="1">
                    <mxGeometry x="200" y="700" width="80" height="80" as="geometry"/>
                </mxCell>
                <mxCell id="322" style="edgeStyle=none;html=1;" edge="1" parent="1" source="314" target="321">
                    <mxGeometry relative="1" as="geometry"/>
                </mxCell>
                <mxCell id="314" value="Back-End" style="rhombus;whiteSpace=wrap;html=1;fontFamily=Helvetica;fontSize=12;fontColor=#ffffff;align=center;strokeColor=#2D7600;fillColor=#60a917;" vertex="1" parent="1">
                    <mxGeometry x="330" y="920" width="80" height="80" as="geometry"/>
                </mxCell>
                <mxCell id="317" value="Pages" style="rhombus;whiteSpace=wrap;html=1;fontFamily=Helvetica;fontSize=12;fontColor=default;align=center;strokeColor=default;fillColor=default;" vertex="1" parent="1">
                    <mxGeometry x="1250" y="360" width="80" height="80" as="geometry"/>
                </mxCell>
                <mxCell id="321" value="To be continued...." style="rounded=0;whiteSpace=wrap;html=1;shadow=0;glass=0;sketch=0;" vertex="1" parent="1">
                    <mxGeometry x="470" y="930" width="120" height="60" as="geometry"/>
                </mxCell>
                <mxCell id="325" style="edgeStyle=none;html=1;entryX=0;entryY=0.5;entryDx=0;entryDy=0;" edge="1" parent="1" source="324" target="313">
                    <mxGeometry relative="1" as="geometry"/>
                </mxCell>
                <mxCell id="324" value="Start" style="ellipse;whiteSpace=wrap;html=1;aspect=fixed;rounded=0;shadow=0;glass=0;sketch=0;fillColor=#6a00ff;fontColor=#ffffff;strokeColor=#3700CC;" vertex="1" parent="1">
                    <mxGeometry x="20" y="700" width="80" height="80" as="geometry"/>
                </mxCell>
            </root>
        </mxGraphModel>
    </diagram>
</mxfile>